# xmcd CD database file
#
# Track frame offsets:
#	150
#	19936
#	34070
#	49195
#	68387
#	82747
#	103711
#	124137
#	139724
#	151594
#	169567
#	190721
#	203895
#	220978
#
# Disc length: 3185 seconds
#
# Revision: 2
# Processed by: cddbd v1.5.2PL0 Copyright (c) Steve Scherf et al.
# Submitted via: CDex 1.51
#
DISCID=af0c6f0e
DTITLE=Don Edwards - Heaven On Horseback
DYEAR=2009
DGENRE=Gospel
TTITLE0=Master's Call
TTITLE1=I Saw The Light
TTITLE2=Amazing Grace
TTITLE3=The Great Speckled Bird
TTITLE4=Drift Along Lonely Cowboy
TTITLE5=A Cowboy's Prayer - Dim Narrow Trail
TTITLE6=Make Me No Grave
TTITLE7=Why Me
TTITLE8=Pilgrim's Progress
TTITLE9=Cowboy's Prayer
TTITLE10=Wayfaring Stranger
TTITLE11=Rounded Up In Glory
TTITLE12=Angels Can Do No More
TTITLE13=Strange Things Happening In The Land
EXTD=YEAR: 2009
EXTT0=
EXTT1=
EXTT2=
EXTT3=
EXTT4=
EXTT5=
EXTT6=
EXTT7=
EXTT8=
EXTT9=
EXTT10=
EXTT11=
EXTT12=
EXTT13=
PLAYORDER=
